<svg xmlns="http://www.w3.org/2000/svg" width="22" height="27" viewBox="0 0 22 27" fill="none">
<path d="M9.35387 1.80845L10.4439 0.435883C10.9055 -0.145294 11.6518 -0.145294 12.1085 0.435883L21.6538 12.4489C22.1154 13.0301 22.1154 13.9699 21.6538 14.5449L12.1085 26.5641C11.6469 27.1453 10.9006 27.1453 10.4439 26.5641L9.35387 25.1916C8.8874 24.6042 8.89722 23.6459 9.37351 23.0709L15.2903 15.9731H1.17844C0.525388 15.9731 0 15.3115 0 14.4892V12.5108C0 11.6885 0.525388 11.0269 1.17844 11.0269H15.2903L9.37351 3.92913C8.89231 3.35413 8.88249 2.39581 9.35387 1.80845Z" fill="#5E5E5E"/>
</svg>