<svg width="30" height="30" viewBox="0 0 30 30" fill="none" xmlns="http://www.w3.org/2000/svg">
<path d="M12.7553 2.00939L14.2417 0.484314C14.8711 -0.161438 15.8889 -0.161438 16.5116 0.484314L29.528 13.8322C30.1574 14.4779 30.1574 15.5221 29.528 16.161L16.5116 29.5157C15.8822 30.1614 14.8644 30.1614 14.2417 29.5157L12.7553 27.9906C12.1192 27.338 12.1326 26.2732 12.7821 25.6343L20.8504 17.7479H1.60696C0.716438 17.7479 0 17.0128 0 16.0992V13.9008C0 12.9872 0.716438 12.2521 1.60696 12.2521H20.8504L12.7821 4.3657C12.1259 3.72681 12.1125 2.66201 12.7553 2.00939Z" fill="#FAFAFA"/>
</svg>
