<svg xmlns="http://www.w3.org/2000/svg" width="52" height="50" viewBox="0 0 52 50" fill="none">
<path d="M43.2047 25V39.75C43.2047 41.6356 43.2047 42.5784 42.6189 43.1642C42.0332 43.75 41.0903 43.75 39.2047 43.75H13.849C11.7819 43.75 10.7484 43.75 10.0012 43.2624C9.65283 43.0351 9.35552 42.7378 9.12818 42.3894C8.64062 41.6422 8.64062 40.6087 8.64062 38.5417V38.5417C8.64062 36.4746 8.64062 35.4411 9.12818 34.6939C9.35552 34.3455 9.65283 34.0482 10.0012 33.8209C10.7484 33.3333 11.7819 33.3333 13.849 33.3333H39.2047C41.0903 33.3333 42.0332 33.3333 42.6189 32.7475C43.2047 32.1618 43.2047 31.219 43.2047 29.3333V10.25C43.2047 8.36438 43.2047 7.42157 42.6189 6.83579C42.0332 6.25 41.0903 6.25 39.2047 6.25H12.6406C10.755 6.25 9.8122 6.25 9.22641 6.83579C8.64062 7.42157 8.64062 8.36438 8.64062 10.25V38.5417" stroke="#222222"/>
<path d="M19.4424 20.8333L23.0687 24.3305C23.4561 24.7041 24.0697 24.7041 24.4571 24.3305L32.4039 16.6667" stroke="#222222" stroke-linecap="round"/>
</svg>