<svg xmlns="http://www.w3.org/2000/svg" width="35" height="35" viewBox="0 0 35 35" fill="none">
<path d="M13.125 18.9583C12.1625 19.4396 11.3605 20.1542 10.7625 21.0438C10.4271 21.5542 10.4271 22.1958 10.7625 22.7063C11.3605 23.5958 12.1625 24.3104 13.125 24.7917" stroke="#292D32" stroke-width="1.5" stroke-linecap="round" stroke-linejoin="round"/>
<path d="M22.1812 18.9583C23.1437 19.4396 23.9457 20.1542 24.5437 21.0438C24.8791 21.5542 24.8791 22.1958 24.5437 22.7063C23.9457 23.5958 23.1437 24.3104 22.1812 24.7917" stroke="#292D32" stroke-width="1.5" stroke-linecap="round" stroke-linejoin="round"/>
<path d="M13.1251 32.0833H21.8751C29.1667 32.0833 32.0834 29.1667 32.0834 21.875V13.125C32.0834 5.83334 29.1667 2.91667 21.8751 2.91667H13.1251C5.83341 2.91667 2.91675 5.83334 2.91675 13.125V21.875C2.91675 29.1667 5.83341 32.0833 13.1251 32.0833Z" stroke="#292D32" stroke-width="1.5" stroke-linecap="round" stroke-linejoin="round"/>
<path d="M3.2522 11.6812L31.2814 11.6667" stroke="#292D32" stroke-width="1.5" stroke-linecap="round" stroke-linejoin="round"/>
</svg>