<svg xmlns="http://www.w3.org/2000/svg" width="21" height="30" viewBox="0 0 21 30" fill="none">
  <g clip-path="url(#clip0_28_2986)">
    <path d="M8.19562 3.75C4.14984 3.75 0.870117 8.78678 0.870117 15C0.870117 21.2132 4.14984 26.25 8.19562 26.25C12.2414 26.25 15.5211 21.2132 15.5211 15C15.5211 8.78678 12.2414 3.75 8.19562 3.75ZM8.19562 5.92742C11.4605 5.92742 14.1033 9.98518 14.1033 15C14.1033 20.0141 11.461 24.0726 8.19562 24.0726C4.93069 24.0726 2.28796 20.0148 2.28796 15C2.28796 9.98595 4.93019 5.92742 8.19562 5.92742ZM12.337 11.8367L11.6713 10.8062C11.5335 10.5927 11.309 10.5913 11.1701 10.8031L6.99477 17.1637L5.22861 14.4293C5.09076 14.2159 4.86632 14.2145 4.72735 14.4262L4.05627 15.4485C3.91729 15.6602 3.91637 16.0049 4.05426 16.2184L6.73577 20.3698C6.87363 20.5832 7.09806 20.5846 7.23704 20.3729L12.335 12.6066C12.474 12.3948 12.4749 12.0501 12.337 11.8367Z" fill="#5E5E5E"/>
  </g>
  <defs>
    <clipPath id="clip0_28_2986">
      <rect width="19.5347" height="30" fill="white" transform="translate(0.870117)"/>
    </clipPath>
  </defs>
</svg>