<svg xmlns="http://www.w3.org/2000/svg" width="34" height="35" viewBox="0 0 34 35" fill="none">
  <g clip-path="url(#clip0_337_347)">
    <path fill-rule="evenodd" clip-rule="evenodd" d="M31.9437 6.7444L18.1945 0.373385C18.1945 0.373385 17.3879 0 16.9401 0C16.4923 0 15.6896 0.373385 15.6896 0.373385L1.92858 6.7444C1.92858 6.7444 1.32405 7.00101 1.32405 7.4833C1.32405 7.99481 1.95211 8.37973 1.95211 8.37973L15.768 15.8919L15.9876 16.0072C16.2739 16.1388 16.5988 16.2138 16.9401 16.2138C17.2852 16.2138 17.6147 16.1387 17.9043 16.0036L18.0964 15.901L31.9359 8.37599C31.9359 8.37599 32.504 8.06138 32.504 7.48322C32.504 6.97661 31.9437 6.7444 31.9437 6.7444ZM32.9296 10.6079C32.793 10.6079 32.6636 10.6335 32.5459 10.6829L32.3733 10.7725L19.3978 17.7053L19.1037 17.8609L19.1012 17.8624L19.0997 17.8645C18.5276 18.2284 18.1512 18.8395 18.1512 19.5346V34.0222C18.1512 34.5196 18.5787 34.922 19.1115 34.922C19.2763 34.922 19.4332 34.882 19.5704 34.8126C19.5765 34.8088 19.5835 34.805 19.5906 34.8013C19.5973 34.7977 19.6039 34.7942 19.6097 34.7906L32.8315 27.565L32.8511 27.554C33.4748 27.203 33.8905 26.5608 33.8905 25.831V11.5042C33.8905 11.0085 33.4591 10.6079 32.9296 10.6079ZM14.4792 17.7055L14.7813 17.8648C15.3532 18.2287 15.7297 18.8396 15.7298 19.5349V34.0224C15.7298 34.5199 15.2984 34.9222 14.7696 34.9222C14.5852 34.9222 14.4125 34.875 14.2674 34.7908L1.04494 27.5651L1.0292 27.5542C0.405527 27.2031 -0.00952148 26.5629 -0.00952148 25.8311V11.5043C-0.00952148 11.0086 0.421267 10.6081 0.950726 10.6081C1.08792 10.6081 1.22133 10.6337 1.33445 10.6831L1.50698 10.7727L14.4792 17.7055Z" fill="#5F51CB"/>
    <mask id="mask0_337_347" style="mask-type:alpha" maskUnits="userSpaceOnUse" x="-1" y="0" width="35" height="35">
      <path fill-rule="evenodd" clip-rule="evenodd" d="M31.9437 6.7444L18.1945 0.373385C18.1945 0.373385 17.3879 0 16.9401 0C16.4923 0 15.6896 0.373385 15.6896 0.373385L1.92858 6.7444C1.92858 6.7444 1.32405 7.00101 1.32405 7.4833C1.32405 7.99481 1.95211 8.37973 1.95211 8.37973L15.768 15.8919L15.9876 16.0072C16.2739 16.1388 16.5988 16.2138 16.9401 16.2138C17.2852 16.2138 17.6147 16.1387 17.9043 16.0036L18.0964 15.901L31.9359 8.37599C31.9359 8.37599 32.504 8.06138 32.504 7.48322C32.504 6.97661 31.9437 6.7444 31.9437 6.7444ZM32.9296 10.6079C32.793 10.6079 32.6636 10.6335 32.5459 10.6829L32.3733 10.7725L19.3978 17.7053L19.1037 17.8609L19.1012 17.8624L19.0997 17.8645C18.5276 18.2284 18.1512 18.8395 18.1512 19.5346V34.0222C18.1512 34.5196 18.5787 34.922 19.1115 34.922C19.2763 34.922 19.4332 34.882 19.5704 34.8126C19.5765 34.8088 19.5835 34.805 19.5906 34.8013C19.5973 34.7977 19.6039 34.7942 19.6097 34.7906L32.8315 27.565L32.8511 27.554C33.4748 27.203 33.8905 26.5608 33.8905 25.831V11.5042C33.8905 11.0085 33.4591 10.6079 32.9296 10.6079ZM14.4792 17.7055L14.7813 17.8648C15.3532 18.2287 15.7297 18.8396 15.7298 19.5349V34.0224C15.7298 34.5199 15.2984 34.9222 14.7696 34.9222C14.5852 34.9222 14.4125 34.875 14.2674 34.7908L1.04494 27.5651L1.0292 27.5542C0.405527 27.2031 -0.00952148 26.5629 -0.00952148 25.8311V11.5043C-0.00952148 11.0086 0.421267 10.6081 0.950726 10.6081C1.08792 10.6081 1.22133 10.6337 1.33445 10.6831L1.50698 10.7727L14.4792 17.7055Z" fill="white"/>
    </mask>
    <g mask="url(#mask0_337_347)">
      <path d="M33.9662 0H-0.00952148V35H33.9662V0Z" fill="#1E88E5"/>
    </g>
  </g>
  <defs>
    <clipPath id="clip0_337_347">
      <rect width="33.9757" height="35" fill="white" transform="translate(-0.00952148)"/>
    </clipPath>
  </defs>
</svg>