<svg xmlns="http://www.w3.org/2000/svg" width="26" height="30" viewBox="0 0 26 30" fill="none">
<path d="M12.6257 14.0039L20.2114 6.03516C20.7357 5.48438 21.5835 5.48438 22.1022 6.03516L23.3628 7.35937C23.8871 7.91016 23.8871 8.80078 23.3628 9.3457L17.9914 15L23.3683 20.6484C23.8926 21.1992 23.8926 22.0898 23.3683 22.6348L22.1078 23.9648C21.5835 24.5156 20.7357 24.5156 20.2169 23.9648L12.6312 15.9961C12.1014 15.4453 12.1014 14.5547 12.6257 14.0039ZM1.91646 15.9961L9.50215 23.9648C10.0265 24.5156 10.8743 24.5156 11.393 23.9648L12.6536 22.6406C13.1779 22.0898 13.1779 21.1992 12.6536 20.6543L7.28222 15L12.6591 9.35156C13.1834 8.80078 13.1834 7.91016 12.6591 7.36523L11.3986 6.03516C10.8743 5.48438 10.0265 5.48438 9.50773 6.03516L1.92204 14.0039C1.39216 14.5547 1.39216 15.4453 1.91646 15.9961Z" fill="black"/>
</svg>