<svg xmlns="http://www.w3.org/2000/svg" width="30" height="30" viewBox="0 0 30 30" fill="none">
<path d="M21.7939 6.46122L19.1882 3.73795C18.7361 3.26545 18.123 3 17.4836 3L8.83929 3C7.50787 3 6.42857 4.128 6.42857 5.5195V8.039H2.41071C1.0793 8.039 0 9.167 0 10.5585V27.3552C0 28.7467 1.0793 29.8747 2.41071 29.8747H13.6607C14.9921 29.8747 16.0714 28.7467 16.0714 27.3552V24.8357H20.0893C21.4207 24.8357 22.5 23.7077 22.5 22.3162V8.24277C22.5 7.57456 22.246 6.93371 21.7939 6.46122ZM13.3594 27.3552H2.71205C2.63213 27.3552 2.55549 27.322 2.49897 27.2629C2.44246 27.2039 2.41071 27.1238 2.41071 27.0402V10.8734C2.41071 10.7899 2.44246 10.7098 2.49897 10.6507C2.55549 10.5917 2.63213 10.5585 2.71205 10.5585H6.42857V22.3162C6.42857 23.7077 7.50787 24.8357 8.83929 24.8357H13.6607V27.0402C13.6607 27.1238 13.629 27.2039 13.5725 27.2629C13.5159 27.322 13.4393 27.3552 13.3594 27.3552ZM19.7879 22.3162H9.14063C9.06071 22.3162 8.98406 22.283 8.92755 22.2239C8.87103 22.1649 8.83929 22.0848 8.83929 22.0012V5.83444C8.83929 5.75091 8.87103 5.67081 8.92755 5.61174C8.98406 5.55268 9.06071 5.5195 9.14063 5.5195H14.4643V10.1386C14.4643 10.8343 15.0039 11.3983 15.6696 11.3983H20.0893V22.0012C20.0893 22.0848 20.0575 22.1649 20.001 22.2239C19.9445 22.283 19.8679 22.3162 19.7879 22.3162ZM20.0893 8.87884H16.875V5.5195H17.3588C17.4387 5.5195 17.5153 5.55267 17.5718 5.61173L20.001 8.15054C20.029 8.17979 20.0512 8.21451 20.0664 8.25273C20.0815 8.29094 20.0893 8.3319 20.0893 8.37326V8.87884Z" fill="black"/>
</svg>