<?xml version="1.0" encoding="UTF-8" standalone="no"?>
<svg
   xmlns:dc="http://purl.org/dc/elements/1.1/"
   xmlns:cc="http://creativecommons.org/ns#"
   xmlns:rdf="http://www.w3.org/1999/02/22-rdf-syntax-ns#"
   xmlns:svg="http://www.w3.org/2000/svg"
   xmlns="http://www.w3.org/2000/svg"
   viewBox="0 0 566.93335 483.62668"
   height="483.62668"
   width="566.93335"
   xml:space="preserve"
   id="svg2"
   version="1.1"><metadata
     id="metadata8"><rdf:RDF><cc:Work
         rdf:about=""><dc:format>image/svg+xml</dc:format><dc:type
           rdf:resource="http://purl.org/dc/dcmitype/StillImage" /></cc:Work></rdf:RDF></metadata><defs
     id="defs6" /><g
     transform="matrix(1.3333333,0,0,-1.3333333,0,483.62667)"
     id="g10"><g
       transform="scale(0.1)"
       id="g12"><path
         id="path14"
         style="fill:#ffffff;fill-opacity:1;fill-rule:nonzero;stroke:none"
         d="m 2080.12,991.98 c -1.75,0 -3.49,0.231 -5.19,0.68 l -906.38,243.2 c -8.77,2.35 -14.86,10.33 -14.81,19.42 l 5.44,1051.89 c 0.03,5.31 2.17,10.39 5.94,14.12 3.74,3.7 8.8,5.78 14.06,5.78 l 1815.39,-9.44 c 5.31,-0.03 10.38,-2.16 14.11,-5.93 3.73,-3.77 5.82,-8.87 5.79,-14.17 l -5.49,-1051.89 c -0.04,-9.09 -6.21,-17 -15.02,-19.27 L 2085.1,992.609 c -1.63,-0.418 -3.31,-0.629 -4.98,-0.629" /><path
         id="path16"
         style="fill:#231f20;fill-opacity:1;fill-rule:nonzero;stroke:none"
         d="m 1179.18,2347.07 c -10.53,0 -20.64,-4.15 -28.13,-11.57 -7.54,-7.46 -11.81,-17.61 -11.87,-28.22 l -5.44,-1051.9 c -0.09,-18.17 12.08,-34.12 29.63,-38.84 l 906.38,-243.188 c 3.39,-0.922 6.88,-1.372 10.37,-1.372 3.35,0 6.69,0.418 9.96,1.262 L 2998.95,1207 c 17.6,4.53 29.94,20.36 30.03,38.53 l 5.49,1051.89 c 0.05,10.61 -4.11,20.8 -11.57,28.34 -7.47,7.55 -17.62,11.82 -28.22,11.87 l -1815.29,9.44 z m 0,-40 1815.29,-9.44 -5.49,-1051.89 -908.86,-233.76 -906.38,243.2 5.44,1051.89" /><path
         id="path18"
         style="fill:#ffffff;fill-opacity:1;fill-rule:nonzero;stroke:none"
         d="m 2083.32,1607.04 c -2.26,0 -4.5,0.38 -6.65,1.14 l -905.99,319.22 c -8.03,2.84 -13.39,10.45 -13.35,18.97 l 1.85,360.8 c 0.03,5.31 2.17,10.39 5.94,14.12 3.74,3.7 8.8,5.78 14.06,5.78 l 1815.39,-9.44 c 5.31,-0.03 10.38,-2.16 14.11,-5.93 3.74,-3.77 5.82,-8.87 5.79,-14.18 l -1.9,-360.79 c -0.05,-8.53 -5.49,-16.08 -13.55,-18.83 l -909.25,-309.79 c -2.09,-0.71 -4.28,-1.07 -6.45,-1.07" /><path
         id="path20"
         style="fill:#231f20;fill-opacity:1;fill-rule:nonzero;stroke:none"
         d="m 1179.18,2347.07 c -10.53,0 -20.64,-4.15 -28.14,-11.57 -7.53,-7.46 -11.8,-17.61 -11.86,-28.22 l -1.85,-360.81 c -0.09,-17.04 10.63,-32.27 26.71,-37.93 l 905.98,-319.22 c 4.3,-1.52 8.8,-2.28 13.3,-2.28 4.36,0 8.71,0.72 12.9,2.14 l 909.25,309.79 c 16.13,5.49 27.01,20.61 27.1,37.65 l 1.9,360.8 c 0.05,10.61 -4.11,20.8 -11.57,28.34 -7.46,7.55 -17.62,11.82 -28.22,11.87 l -1815.29,9.44 z m 0,-40 1815.29,-9.44 -1.9,-360.8 -909.25,-309.79 -905.99,319.23 1.85,360.8" /><path
         id="path22"
         style="fill:#ffffff;fill-opacity:1;fill-rule:nonzero;stroke:none"
         d="m 2083.92,1725.31 c -2.25,0 -4.5,0.39 -6.65,1.14 L 377.938,2325.24 c -8.036,2.83 -13.395,10.44 -13.352,18.96 0.043,8.52 5.48,16.08 13.551,18.83 l 1705.453,581.12 c 2.09,0.71 4.27,1.07 6.45,1.07 2.25,0 4.5,-0.38 6.64,-1.14 l 1699.37,-598.8 c 8.04,-2.83 13.4,-10.44 13.35,-18.96 -0.04,-8.53 -5.48,-16.08 -13.55,-18.83 L 2090.37,1726.38 c -2.09,-0.71 -4.28,-1.07 -6.45,-1.07" /><path
         id="path24"
         style="fill:#231f20;fill-opacity:1;fill-rule:nonzero;stroke:none"
         d="m 2090.04,2965.22 c -4.36,0 -8.72,-0.72 -12.9,-2.14 L 371.684,2381.96 c -16.133,-5.5 -27.012,-20.61 -27.098,-37.65 -0.09,-17.05 10.629,-32.27 26.703,-37.94 L 2070.63,1707.59 c 4.29,-1.52 8.79,-2.28 13.29,-2.28 4.36,0 8.71,0.72 12.9,2.14 l 1705.48,581.11 c 16.14,5.49 27.02,20.61 27.1,37.65 0.09,17.04 -10.63,32.27 -26.7,37.93 l -1699.37,598.8 c -4.3,1.52 -8.79,2.28 -13.29,2.28 z m 0,-40 L 3789.4,2326.42 2083.92,1745.31 384.586,2344.1 2090.04,2925.22" /><path
         id="path26"
         style="fill:#ffffff;fill-opacity:1;fill-rule:nonzero;stroke:none"
         d="m 3704.53,1278.99 c -11.04,0.06 -19.95,9.06 -19.9,20.1 l 5.12,984.94 -1602.98,8.3 c -3.7,0 -16.54,0.81 -26.8,11.12 -5.29,5.31 -11.58,14.98 -11.5,30.91 0.14,27.65 19.47,40.24 37.38,40.24 l 2.09,-0.06 1664.43,-8.61 c 5.31,-0.02 10.38,-2.16 14.11,-5.93 3.73,-3.77 5.82,-8.87 5.79,-14.17 l -5.43,-1047.16 c -0.03,-5.31 -2.17,-10.38 -5.94,-14.11 -3.74,-3.71 -8.8,-5.79 -14.06,-5.79 l -42.31,0.22" /><path
         id="path28"
         style="fill:#231f20;fill-opacity:1;fill-rule:nonzero;stroke:none"
         d="m 2085.85,2394.6 h -0.01 c -28.35,0 -57.17,-20.66 -57.37,-60.13 -0.11,-22.81 9.36,-37.13 17.32,-45.13 15.28,-15.36 33.76,-17.01 40.99,-17.01 h 0.14 l 1582.72,-8.19 -5.01,-964.94 c -0.11,-22.09 17.7,-40.09 39.79,-40.21 l 42.21,-0.22 h 0.21 c 10.53,0 20.64,4.16 28.13,11.57 7.54,7.46 11.81,17.62 11.87,28.23 l 5.43,1047.15 c 0.05,10.61 -4.11,20.81 -11.57,28.35 -7.46,7.54 -17.61,11.81 -28.22,11.86 l -1664.03,8.61 c -0.78,0.04 -1.66,0.06 -2.6,0.06 z m 0,-40 1.26,-0.05 1665.16,-8.62 -5.43,-1047.16 -42.21,0.22 5.22,1004.94 -1622.97,8.4 h -0.1 c -1.51,0 -18.42,0.47 -18.31,21.93 0.09,18.84 13.2,20.34 17.38,20.34" /><path
         id="path30"
         style="fill:#ffffff;fill-opacity:1;fill-rule:nonzero;stroke:none"
         d="m 3637.02,1224.21 c 30.42,59.78 60.17,79.7 86.57,80.02 26.46,-0.59 55.99,-20.81 85.8,-80.9 90.44,-182.52 48.11,-521.381 48.11,-521.381 l -274.04,1.41 c 0,0 -38.77,339.311 53.56,520.851" /><path
         id="path32"
         style="fill:#231f20;fill-opacity:1;fill-rule:nonzero;stroke:none"
         d="m 3637.02,1224.21 17.83,-9.07 c 14.4,28.37 28.25,46.16 39.99,56.21 5.88,5.04 11.19,8.2 15.92,10.13 4.75,1.93 8.95,2.69 13.08,2.75 l -0.25,20 -0.44,-19.99 c 4.15,-0.11 8.35,-0.92 13.08,-2.89 7.06,-2.96 15.46,-8.74 24.91,-19.42 9.42,-10.64 19.74,-26.11 30.33,-47.49 21.98,-44.27 36.21,-100.03 44.65,-158.16 8.47,-58.139 11.28,-118.628 11.28,-172.671 0,-50.589 -2.45,-95.527 -4.89,-127.738 -1.22,-16.109 -2.44,-29.039 -3.35,-37.902 -0.46,-4.438 -0.84,-7.848 -1.1,-10.149 -0.13,-1.148 -0.23,-2.011 -0.3,-2.578 l -0.1,-0.82 19.84,-2.473 0.11,20 -274.05,1.41 -0.1,-20 19.87,2.27 -0.08,0.723 c -0.83,7.617 -7.87,74.66 -7.87,161.839 0,55.348 2.84,118.829 11.79,180.149 8.91,61.32 24.06,120.46 47.68,166.8 l -17.83,9.07 -17.83,9.07 c -26.56,-52.33 -42.23,-115.16 -51.6,-179.17 -9.33,-64.001 -12.2,-129.2 -12.21,-185.919 0.01,-95.261 8.16,-166.601 8.21,-167.101 1.15,-10.078 9.63,-17.68 19.77,-17.731 l 274.04,-1.41 c 10.14,-0.058 18.69,7.461 19.95,17.52 0.06,0.543 10.04,80.41 10.05,184.14 -0.01,55.422 -2.85,117.651 -11.7,178.431 -8.88,60.8 -23.66,120.17 -48.39,170.17 -15.7,31.58 -31.7,53.8 -48.89,68.92 -8.59,7.54 -17.53,13.25 -26.72,17.1 -9.17,3.87 -18.58,5.8 -27.66,6 h -0.69 c -9.07,-0.1 -18.49,-1.95 -27.7,-5.71 -13.85,-5.66 -27.08,-15.44 -39.68,-29.41 -12.62,-13.99 -24.77,-32.26 -36.77,-55.83 l 17.82,-9.07" /><path
         id="path34"
         style="fill:#ffffff;fill-opacity:1;fill-rule:nonzero;stroke:none"
         d="m 3628.22,1282.36 c -0.28,-54.66 43.81,-99.24 98.48,-99.52 54.71,-0.3 99.25,43.83 99.55,98.5 0.26,54.7 -43.81,99.23 -98.51,99.54 -54.69,0.26 -99.25,-43.82 -99.52,-98.52" /><path
         id="path36"
         style="fill:#231f20;fill-opacity:1;fill-rule:nonzero;stroke:none"
         d="m 3628.22,1282.36 -20,0.14 v -0.66 c 0.01,-65.43 52.85,-118.64 118.38,-119 h 0.04 0.62 c 65.47,0.02 118.61,52.91 118.99,118.39 v 0.11 0.49 c -0.01,65.48 -52.86,118.67 -118.4,119.05 h 0.04 -0.64 c -65.47,-0.01 -118.7,-52.86 -119.03,-118.42 v 0.04 l 20,-0.14 20,-0.1 c 0.2,43.51 35.56,78.63 79.03,78.62 h 0.34 0.04 c 43.53,-0.23 78.63,-35.57 78.62,-79.05 v -0.49 0.12 c -0.23,-43.49 -35.57,-78.63 -78.99,-78.62 h -0.49 0.04 c -43.48,0.21 -78.6,35.58 -78.59,79 v 0.38 0.04 l -20,0.1" /></g></g></svg>