<svg xmlns="http://www.w3.org/2000/svg" width="30" height="30" viewBox="0 0 30 30" fill="none">
<path d="M27.1875 0H2.8125C1.25918 0 0 1.43906 0 3.21429V26.7857C0 28.5609 1.25918 30 2.8125 30H27.1875C28.7408 30 30 28.5609 30 26.7857V3.21429C30 1.43906 28.7408 0 27.1875 0ZM26.8359 26.7857H3.16406C3.07082 26.7857 2.9814 26.7434 2.91547 26.668C2.84954 26.5927 2.8125 26.4905 2.8125 26.3839V3.61607C2.8125 3.50951 2.84954 3.40732 2.91547 3.33197C2.9814 3.25662 3.07082 3.21429 3.16406 3.21429H26.8359C26.9292 3.21429 27.0186 3.25662 27.0845 3.33197C27.1505 3.40732 27.1875 3.50951 27.1875 3.61607V26.3839C27.1875 26.4905 27.1505 26.5927 27.0845 26.668C27.0186 26.7434 26.9292 26.7857 26.8359 26.7857ZM24.375 20.625V22.2321C24.375 22.6759 24.0602 23.0357 23.6719 23.0357H11.9531C11.5648 23.0357 11.25 22.6759 11.25 22.2321V20.625C11.25 20.1812 11.5648 19.8214 11.9531 19.8214H23.6719C24.0602 19.8214 24.375 20.1812 24.375 20.625ZM24.375 14.1964V15.8036C24.375 16.2473 24.0602 16.6071 23.6719 16.6071H11.9531C11.5648 16.6071 11.25 16.2473 11.25 15.8036V14.1964C11.25 13.7527 11.5648 13.3929 11.9531 13.3929H23.6719C24.0602 13.3929 24.375 13.7527 24.375 14.1964ZM24.375 7.76786V9.375C24.375 9.81877 24.0602 10.1786 23.6719 10.1786H11.9531C11.5648 10.1786 11.25 9.81877 11.25 9.375V7.76786C11.25 7.32408 11.5648 6.96429 11.9531 6.96429H23.6719C24.0602 6.96429 24.375 7.32408 24.375 7.76786ZM9.60938 8.57143C9.60938 9.90281 8.66496 10.9821 7.5 10.9821C6.33504 10.9821 5.39062 9.90281 5.39062 8.57143C5.39062 7.24004 6.33504 6.16071 7.5 6.16071C8.66496 6.16071 9.60938 7.24004 9.60938 8.57143ZM9.60938 15C9.60938 16.3314 8.66496 17.4107 7.5 17.4107C6.33504 17.4107 5.39062 16.3314 5.39062 15C5.39062 13.6686 6.33504 12.5893 7.5 12.5893C8.66496 12.5893 9.60938 13.6686 9.60938 15ZM9.60938 21.4286C9.60938 22.76 8.66496 23.8393 7.5 23.8393C6.33504 23.8393 5.39062 22.76 5.39062 21.4286C5.39062 20.0972 6.33504 19.0179 7.5 19.0179C8.66496 19.0179 9.60938 20.0972 9.60938 21.4286Z" fill="black"/>
</svg>