<svg width="35" height="35" viewBox="0 0 35 35" fill="none" xmlns="http://www.w3.org/2000/svg">
<path id="Vector" d="M0 17.5C0 17.9832 0.489731 18.375 1.09375 18.375H20.3285L14.5392 23.0063C14.3341 23.1704 14.2189 23.3929 14.2189 23.6249C14.2188 24.1081 14.7085 24.4999 15.3125 24.5C15.6026 24.5002 15.8809 24.408 16.0857 24.2437L23.7419 18.1187C23.7418 18.1188 23.7421 18.1185 23.7419 18.1187C24.1688 17.777 24.169 17.2229 23.7419 16.8815L16.0857 10.7565C15.6619 10.429 14.9899 10.429 14.566 10.7565C14.1316 11.0922 14.1195 11.6461 14.5392 11.9937L20.3285 16.625H1.09375C0.489731 16.625 0 17.0168 0 17.5ZM29.5312 0H5.46875C2.44959 0.00224297 0.00280372 1.95967 0 4.375V11.375C0 11.8582 0.489731 12.25 1.09375 12.25C1.69777 12.25 2.1875 11.8582 2.1875 11.375V4.375C2.1895 2.92589 3.65736 1.7516 5.46875 1.75H29.5312C31.3426 1.7516 32.8105 2.92589 32.8125 4.375V30.625C32.8105 32.0741 31.3426 33.2484 29.5312 33.25H5.46875C3.65736 33.2484 2.1895 32.0741 2.1875 30.625V23.625C2.1875 23.1418 1.69777 22.75 1.09375 22.75C0.489731 22.75 0 23.1418 0 23.625V30.625C0.00280372 33.0403 2.44959 34.9978 5.46875 35H29.5312C32.5504 34.9978 34.9972 33.0403 35 30.625V4.375C34.9972 1.95967 32.5504 0.00224297 29.5312 0Z" fill="black"/>
</svg>
