<svg xmlns="http://www.w3.org/2000/svg" width="36" height="36" viewBox="0 0 36 44" fill="none">
<path d="M17.9098 23.6904C8.03441 23.6904 0 32.1252 0 42.4921C0 42.9046 0.330377 43.2394 0.738547 43.2394H35.081C35.4887 43.2394 35.8195 42.9046 35.8195 42.4921C35.8195 32.1247 27.7856 23.6904 17.9098 23.6904ZM1.49236 41.7447C1.86508 32.5472 9.08659 25.1852 17.9098 25.1852C26.7329 25.1852 33.9544 32.5472 34.3277 41.7447H1.49236Z" fill="black"/>
<path d="M17.6006 21.6366C23.2962 21.6366 27.9299 16.7838 27.9299 10.8183C27.9299 4.85287 23.2967 0 17.6006 0C11.9044 0 7.27075 4.85337 7.27075 10.8183C7.27075 16.7833 11.9044 21.6366 17.6006 21.6366ZM17.6006 1.49472C22.4819 1.49472 26.4528 5.67746 26.4528 10.8183C26.4528 15.9592 22.4819 20.1419 17.6006 20.1419C12.7188 20.1419 8.74784 15.9592 8.74784 10.8183C8.74784 5.67746 12.7193 1.49472 17.6006 1.49472Z" fill="black"/>
</svg>