<?xml version="1.0" encoding="iso-8859-1"?>
<svg fill="#000000" height="800px" width="800px" version="1.1" id="Layer_1" xmlns="http://www.w3.org/2000/svg" xmlns:xlink="http://www.w3.org/1999/xlink" 
	 viewBox="0 0 512 512" xml:space="preserve">
<g>
	<g>
		<path d="M493.714,0C472.85,0,39.15,0,18.286,0C8.187,0,0,8.187,0,18.286C0,39.15,0,472.85,0,493.714
			C0,503.813,8.187,512,18.286,512c20.864,0,454.565,0,475.429,0c10.099,0,18.286-8.187,18.286-18.286c0-20.864,0-454.565,0-475.429
			C512,8.187,503.813,0,493.714,0z M36.571,36.571h201.143v33.718c-37.203-3.423-73.143,25.511-73.143,66.854
			c0,41.22,35.818,70.284,73.143,66.854v33.718h-58.331c-14.07,0-22.858,15.265-15.837,27.429
			c11.505,19.931-2.533,45.714-26.403,45.714c-23.968,0-37.838-25.906-26.403-45.716c7.034-12.186-1.792-27.427-15.837-27.427
			H36.571V36.571z M237.714,417.085v58.344H36.571V274.286h33.718c-3.41,37.142,25.442,73.143,66.854,73.143
			c41.239,0,70.281-35.817,66.854-73.143h33.718v58.319c0,14.012,15.189,22.901,27.427,15.837
			c19.956-11.519,45.716,2.591,45.716,26.403c0,23.835-25.777,37.911-45.716,26.405C252.958,394.213,237.714,403.04,237.714,417.085
			z M475.429,475.429H274.286V441.7c37.35,3.43,73.143-25.634,73.143-66.855c0-41.287-35.877-70.27-73.143-66.854v-33.705h58.331
			c14.069,0,22.857-15.264,15.837-27.427c-11.518-19.95,2.583-45.716,26.403-45.716c24.051,0,37.806,25.963,26.403,45.716
			c-7.034,12.187,1.793,27.427,15.837,27.427h58.331V475.429z M475.429,237.714h-33.716c3.422-37.294-25.557-73.143-66.855-73.143
			c-41.228,0-70.281,35.803-66.855,73.143h-33.716v-58.331c0-14.069-15.264-22.857-27.427-15.837
			c-19.966,11.524-45.716-2.592-45.716-26.403c0-23.829,25.768-37.916,45.716-26.403c12.181,7.033,27.427-1.788,27.427-15.837
			V36.571h201.143V237.714z"/>
	</g>
</g>
</svg>