<svg xmlns="http://www.w3.org/2000/svg" width="35" height="35" viewBox="0 0 35 35" fill="none">
<path d="M10.2084 15.6771H7.29175C3.76258 15.6771 1.823 13.7375 1.823 10.2083V7.29167C1.823 3.76251 3.76258 1.82292 7.29175 1.82292H10.2084C13.7376 1.82292 15.6772 3.76251 15.6772 7.29167V10.2083C15.6772 13.7375 13.7376 15.6771 10.2084 15.6771ZM7.29175 4.01042C4.98758 4.01042 4.0105 4.98751 4.0105 7.29167V10.2083C4.0105 12.5125 4.98758 13.4896 7.29175 13.4896H10.2084C12.5126 13.4896 13.4897 12.5125 13.4897 10.2083V7.29167C13.4897 4.98751 12.5126 4.01042 10.2084 4.01042H7.29175Z" fill="#292D32"/>
<path d="M27.7084 15.6771H24.7917C21.2626 15.6771 19.323 13.7375 19.323 10.2083V7.29167C19.323 3.76251 21.2626 1.82292 24.7917 1.82292H27.7084C31.2376 1.82292 33.1772 3.76251 33.1772 7.29167V10.2083C33.1772 13.7375 31.2376 15.6771 27.7084 15.6771ZM24.7917 4.01042C22.4876 4.01042 21.5105 4.98751 21.5105 7.29167V10.2083C21.5105 12.5125 22.4876 13.4896 24.7917 13.4896H27.7084C30.0126 13.4896 30.9897 12.5125 30.9897 10.2083V7.29167C30.9897 4.98751 30.0126 4.01042 27.7084 4.01042H24.7917Z" fill="#292D32"/>
<path d="M27.7084 33.1771H24.7917C21.2626 33.1771 19.323 31.2375 19.323 27.7083V24.7917C19.323 21.2625 21.2626 19.3229 24.7917 19.3229H27.7084C31.2376 19.3229 33.1772 21.2625 33.1772 24.7917V27.7083C33.1772 31.2375 31.2376 33.1771 27.7084 33.1771ZM24.7917 21.5104C22.4876 21.5104 21.5105 22.4875 21.5105 24.7917V27.7083C21.5105 30.0125 22.4876 30.9896 24.7917 30.9896H27.7084C30.0126 30.9896 30.9897 30.0125 30.9897 27.7083V24.7917C30.9897 22.4875 30.0126 21.5104 27.7084 21.5104H24.7917Z" fill="#292D32"/>
<path d="M10.2084 33.1771H7.29175C3.76258 33.1771 1.823 31.2375 1.823 27.7083V24.7917C1.823 21.2625 3.76258 19.3229 7.29175 19.3229H10.2084C13.7376 19.3229 15.6772 21.2625 15.6772 24.7917V27.7083C15.6772 31.2375 13.7376 33.1771 10.2084 33.1771ZM7.29175 21.5104C4.98758 21.5104 4.0105 22.4875 4.0105 24.7917V27.7083C4.0105 30.0125 4.98758 30.9896 7.29175 30.9896H10.2084C12.5126 30.9896 13.4897 30.0125 13.4897 27.7083V24.7917C13.4897 22.4875 12.5126 21.5104 10.2084 21.5104H7.29175Z" fill="#292D32"/>
</svg>